<svg width="24" height="19" viewBox="0 0 24 19" fill="none" xmlns="http://www.w3.org/2000/svg">
<rect y="5.71429" width="6.85714" height="8" rx="0.4" fill="#36C980"/>
<path d="M14.5077 6.3802C14.3717 5.97209 14.4779 5.52213 14.7821 5.21794V5.21794C15.3587 4.64138 16.3369 4.84217 16.6397 5.59923L17.0777 6.69404C17.1211 6.80255 17.1544 6.9148 17.1774 7.02939L17.3227 7.75608C17.5812 9.04875 17.5812 10.3798 17.3227 11.6725L17.1429 12.5714L16.9154 13.2538C16.7214 13.8361 16.1117 14.1708 15.5163 14.0219V14.0219C14.8525 13.856 14.4705 13.1601 14.6869 12.511L14.8572 12V12C15.2324 10.4993 15.2324 8.92929 14.8572 7.42857V7.42857L14.5077 6.3802Z" fill="#36C980"/>
<path d="M18.7029 2.68758C18.4581 2.11637 18.6357 1.45182 19.1329 1.07894V1.07894C19.8519 0.539681 20.8873 0.842197 21.2029 1.68374L22.2858 4.57143L22.5971 5.60933C23.5073 8.64307 23.3979 11.8915 22.2858 14.8571V14.8571L21.0896 17.6482C20.8085 18.3041 20.0333 18.588 19.395 18.2689V18.2689C18.7824 17.9626 18.5341 17.2176 18.8404 16.605L19.8543 14.5773C19.9513 14.3833 20.03 14.1808 20.0896 13.9723L20.2945 13.2551C20.8503 11.3098 20.8846 9.25247 20.3939 7.28971L20.0977 6.1049C20.0327 5.84491 19.947 5.59053 19.8414 5.3442L18.7029 2.68758Z" fill="#36C980"/>
<path d="M4.57141 6.07639C4.57141 5.95264 4.62869 5.83585 4.72654 5.7601L10.7837 1.07069C11.0466 0.867181 11.4286 1.05454 11.4286 1.38698V17.9854C11.4286 18.3275 11.027 18.5118 10.7677 18.2887L4.71056 13.0782C4.62222 13.0022 4.57141 12.8915 4.57141 12.775V6.07639Z" fill="#36C980"/>
</svg>
