<svg width="46" height="46" viewBox="0 0 46 46" fill="none" xmlns="http://www.w3.org/2000/svg">
<g clip-path="url(#clip0_73_94)">
<path d="M8.56068 27.4169L5.73225 24.5885C5.46861 24.327 5.26249 24.0133 5.1271 23.6675C4.99171 23.3218 4.93002 22.9515 4.946 22.5805C4.96198 22.2095 5.05526 21.846 5.21987 21.5131C5.38449 21.1802 5.61681 20.8854 5.90195 20.6476C9.11837 18.0616 12.8965 16.2662 16.9328 15.4055C20.6583 14.5751 24.521 14.5751 28.2465 15.4055C32.2995 16.2718 36.0914 18.0805 39.3151 20.6853C39.5994 20.9224 39.8312 21.2162 39.9957 21.5478C40.1602 21.8795 40.2539 22.2417 40.2707 22.6116C40.2876 22.9814 40.2273 23.3507 40.0936 23.6959C39.9599 24.0411 39.7558 24.3548 39.4942 24.6168L36.6658 27.4452C36.2128 27.9073 35.6072 28.1888 34.9619 28.2374C34.3166 28.286 33.6757 28.0982 33.1586 27.7092C32.134 26.9234 31.0239 26.2561 29.8493 25.7199C29.385 25.5093 28.9908 25.17 28.7134 24.7422C28.436 24.3144 28.2871 23.8161 28.2842 23.3063L28.2842 20.9115C24.5817 19.8933 20.673 19.8933 16.9705 20.9115L16.9705 23.3063C16.9677 23.8161 16.8187 24.3144 16.5414 24.7422C16.264 25.17 15.8698 25.5093 15.4055 25.7199C14.2309 26.2561 13.1207 26.9234 12.0962 27.7092C11.5736 28.1026 10.9247 28.2902 10.2728 28.2363C9.62091 28.1824 9.01158 27.8908 8.56068 27.4169Z" fill="#FA1619"/>
</g>
<defs>
<clipPath id="clip0_73_94">
<rect width="32" height="32" fill="white" transform="translate(45.2549 22.6274) rotate(135)"/>
</clipPath>
</defs>
</svg>
